<svg width="24" height="24" viewBox="0 0 24 24" fill="none" xmlns="http://www.w3.org/2000/svg">
<path d="M10.9467 3.28084L10.9466 3.28103C10.937 3.3003 10.9287 3.32017 10.9216 3.34053L10.9214 3.34131L9.13436 8.47731L9.01756 8.813H8.66212H2.68112C2.39223 8.813 2.15451 8.9532 1.99357 9.09073C1.83137 9.23172 1.69846 9.40322 1.6024 9.59548L1.60191 9.59647C1.46712 9.86475 1.48009 10.1634 1.5593 10.4024C1.63166 10.6167 1.77538 10.8389 1.99957 10.9787L2.02516 10.9946L2.04864 11.0135L6.66264 14.7275L6.91434 14.9301L6.83303 15.2428L5.37303 20.8578L5.36566 20.8862L5.35503 20.9135C5.25838 21.1616 5.27666 21.4276 5.34757 21.6412C5.42628 21.8771 5.59567 22.1253 5.86802 22.2624L5.87207 22.2645C6.05672 22.3596 6.26142 22.4092 6.46912 22.4092C6.67683 22.4092 6.88153 22.3596 7.06619 22.2645L7.07041 22.2623L7.07042 22.2623C7.094 22.2505 7.11662 22.2368 7.13808 22.2214L7.1385 22.2211L11.8535 18.8531L12.1477 18.643L12.4394 18.8565L16.9874 22.1845L17.0054 22.1977L17.0222 22.2124C17.2804 22.4393 17.5604 22.4408 17.6878 22.44L17.6911 22.44L17.7231 22.44H17.7265C17.8492 22.4409 18.1119 22.4393 18.3608 22.2381L18.381 22.2218L18.4028 22.2077C18.6189 22.0673 18.7586 21.8492 18.8293 21.6394L18.83 21.6372C18.9132 21.394 18.9069 21.1291 18.8123 20.8901L18.8049 20.8715L18.7991 20.8525L17.1191 15.3685L17.0202 15.0457L17.2826 14.8334L22.0624 10.9645C22.0625 10.9644 22.0625 10.9644 22.0626 10.9644C22.1174 10.9199 22.1622 10.8643 22.1939 10.8013C22.1942 10.8008 22.1945 10.8002 22.1948 10.7996L22.2138 10.7606L22.2179 10.7522L22.218 10.7523C22.3299 10.5336 22.5001 10.1833 22.5001 9.81903L10.9467 3.28084ZM10.9467 3.28084C11.0358 3.10183 11.1706 2.92129 11.3366 2.77857C11.4975 2.64078 11.7356 2.5 12.0251 2.5C12.3132 2.5 12.551 2.63938 12.7131 2.77714C12.875 2.91794 13.0076 3.08912 13.1036 3.28097C13.1115 3.29695 13.1185 3.31333 13.1247 3.33007L13.1251 3.33132L15.0301 8.48632L15.1508 8.813H15.4991H21.3691C21.6579 8.813 21.8957 8.9531 22.0553 9.09043C22.2177 9.23132 22.3508 9.40273 22.4471 9.59493L22.4471 9.59503M10.9467 3.28084L22.4471 9.59503M22.4471 9.59503C22.482 9.66455 22.5001 9.74124 22.5001 9.819L22.4471 9.59503Z" fill="#F7F4F0" stroke="black"/>
</svg>
